<svg width="52" height="52" viewBox="0 0 52 52" fill="none" xmlns="http://www.w3.org/2000/svg">
<g id="bike">
<g id="ic">
<g id="tire">
<ellipse id="Ellipse 1994" cx="14.5793" cy="36.7626" rx="6.52074" ry="6.34857" fill="#5076FF"/>
<ellipse id="Ellipse 1996" cx="14.5807" cy="36.768" rx="3.26037" ry="3.17429" fill="#69F8AF"/>
</g>
<g id="tire_2">
<ellipse id="Ellipse 1994_2" cx="40.6809" cy="36.7626" rx="6.52074" ry="6.34857" fill="#5076FF"/>
<ellipse id="Ellipse 1996_2" cx="40.6822" cy="36.768" rx="3.26037" ry="3.17429" fill="#69F8AF"/>
</g>
<path id="Ellipse 1993" d="M7.31387 29.9133C6.91595 30.9696 5.84852 31.56 4.9297 31.232C4.01088 30.9039 3.58861 29.7816 3.98653 28.7252C4.38445 27.6689 5.45188 27.0785 6.3707 27.4065C7.28952 27.7346 7.71179 28.8569 7.31387 29.9133Z" fill="#69F8AF"/>
<path id="Vector 815" d="M23.7785 22.536H9.5144C3.36715 28.2586 4.34448 33.5667 5.7943 35.8822C5.95895 36.1452 6.25591 36.286 6.56618 36.286H49.3765C49.9288 36.286 50.3812 35.8335 50.2585 35.295C49.7216 32.9386 47.4835 30.4855 46.2904 29.4462C46.6161 24.6371 41.787 16.6559 38.9392 12.6988C38.6337 12.2743 38.2906 11.8826 37.9023 11.5323C37.193 10.8922 36.2636 10.111 35.4244 9.42219C34.7782 8.89184 33.8169 9.35505 33.8169 10.191V13.7428V26.864C33.8169 30.0624 31.139 30.8628 28.9352 30.8568C27.9765 30.8543 27.313 30.0044 27.1659 29.057C26.6618 25.81 24.7865 23.4169 23.7785 22.536Z" fill="#38D36A"/>
<path id="Rectangle 8533" d="M7.9375 21.627C7.9375 19.9701 9.28065 18.627 10.9375 18.627H22.2922C23.949 18.627 25.2922 19.9701 25.2922 21.627V21.8593C25.2922 22.4116 24.8445 22.8593 24.2922 22.8593H8.9375C8.38522 22.8593 7.9375 22.4116 7.9375 21.8593V21.627Z" fill="#69F8AF"/>
<path id="Rectangle 8529" d="M28.9688 9.30276C28.9688 8.6523 29.496 8.125 30.1465 8.125H39.5686C40.219 8.125 40.7463 8.6523 40.7463 9.30276C40.7463 9.95322 40.219 10.4805 39.5686 10.4805H30.1465C29.496 10.4805 28.9688 9.95322 28.9688 9.30276Z" fill="#5076FF"/>
</g>
</g>
</svg>
